<svg width="32" height="32" viewBox="0 0 32 32" fill="none" xmlns="http://www.w3.org/2000/svg">
<path fill-rule="evenodd" clip-rule="evenodd" d="M7.73985 19.075C7.42727 18.8992 7.09514 18.743 6.76301 18.6064C6.41654 18.4907 6.06443 18.393 5.70805 18.3135C5.61035 18.2745 5.61035 18.3525 5.61035 18.3721C5.61035 18.6845 5.62989 19.114 5.66897 19.4654C5.70805 19.7583 5.74713 20.0707 5.82528 20.3636C5.82528 20.3831 5.82528 20.4026 5.84482 20.4221C5.88386 20.4612 5.92294 20.4807 5.96202 20.4417C6.27461 20.2659 6.5872 20.1097 6.86071 19.9145C7.15376 19.6998 7.46634 19.4459 7.72032 19.1921C7.77893 19.1335 7.72032 19.0945 7.73985 19.075ZM20.3997 18.6064C20.0532 18.4907 19.7011 18.393 19.3447 18.3135C19.247 18.2745 19.247 18.3525 19.247 18.3721C19.247 18.6845 19.2666 19.114 19.3056 19.4654C19.3447 19.7583 19.3838 20.0707 19.4619 20.3636C19.4619 20.3831 19.4619 20.4026 19.4815 20.4221C19.5206 20.4612 19.5596 20.4807 19.5987 20.4417C19.9113 20.2659 20.2239 20.1097 20.4974 19.9145C20.7905 19.6998 21.1031 19.4459 21.357 19.1921C21.4352 19.1335 21.3766 19.0945 21.3766 19.075C21.0835 18.8992 20.7318 18.743 20.3997 18.6064Z" fill="#23417E"/>
<path fill-rule="evenodd" clip-rule="evenodd" d="M24.5997 0H6.68242C2.98946 0 0 3.01219 0 6.75281V24.7866C0.0195392 28.4878 3.00904 31.5 6.68238 31.5H24.5802C28.2731 31.5 31.2627 28.4878 31.2627 24.7866V6.75281C31.2821 3.01219 28.2927 0 24.5997 0ZM28.3122 13.5253H28.9179V15.4153H28.3122V13.5253ZM24.5802 13.4662L24.6584 15.1594L24.1308 15.2184L23.9354 13.4662H24.5802ZM23.6619 13.4662L23.8182 15.2578L23.2515 15.3169L22.9975 13.4466H23.6619V13.4662ZM14.6543 13.5253H15.2405V15.4153H14.6543V13.5253ZM10.9028 13.4662L10.981 15.1594L10.4534 15.2184L10.258 13.4662H10.9028ZM9.98447 13.4662L10.1408 15.2578L9.57414 15.3366L9.33967 13.4662H9.98447ZM9.84769 19.3331C9.04659 21.9122 4.06416 21.6759 3.61476 21.5972C3.26305 15.2381 2.71595 13.86 2.26655 10.7494L4.39633 9.86344C4.43541 12.6787 4.74803 17.1478 4.74803 17.1478C4.74803 17.1478 8.98805 16.5375 9.90639 18.9984C9.92593 19.1166 9.90639 19.2347 9.84777 19.3331M10.6489 20.7309L9.73054 15.8484H11.1178L11.6258 20.6916L10.6489 20.7309ZM12.3879 20.4159L11.3328 11.1628L12.6419 11.1037L13.4625 20.3962H12.3879V20.4159ZM13.7165 13.5253H14.4004V15.4153H13.8729L13.7165 13.5253ZM15.3188 21.0066H14.2832L13.9119 16.0453H15.3188V21.0066ZM23.5252 19.3134C22.724 21.8925 17.7415 21.6562 17.2921 21.5775C16.9404 15.2381 16.3933 13.86 15.9439 10.7494L18.0737 9.86344C18.1128 12.6787 18.4254 17.1478 18.4254 17.1478C18.4254 17.1478 22.6654 16.5375 23.5837 18.9787C23.6033 19.0969 23.5838 19.215 23.5252 19.3134ZM24.2871 20.7309L23.3883 15.8484H24.7756L25.2836 20.6916L24.2871 20.7309ZM26.0652 20.4159L24.9906 11.1628L26.2997 11.1037L27.1203 20.3962H26.0652V20.4159ZM27.3743 13.5253H28.0582V15.4153H27.5502L27.3743 13.5253ZM28.9766 21.0066H27.941L27.5697 16.0453H28.9766V21.0066Z" fill="#23417E"/>
</svg>
