<svg width="30" height="32" viewBox="0 0 30 32" fill="none" xmlns="http://www.w3.org/2000/svg">
<path d="M23.5138 16.06C26.6367 16.06 29.1672 18.5219 29.1672 21.56V25.9286C29.1672 28.9667 26.6367 31.4286 23.5138 31.4286H15.2013C14.001 31.4293 12.8316 31.0568 11.8623 30.3652C10.893 29.6735 10.174 28.6985 9.80936 27.5812L4.88245 29.9815C4.23619 30.2968 3.4885 30.3494 2.80268 30.1279C2.11686 29.9063 1.54864 29.4286 1.22212 28.799C1.0312 28.4309 0.932002 28.024 0.93262 27.6113V19.8327C0.93475 19.1279 1.22326 18.4528 1.73473 17.9558C2.24619 17.4588 2.93874 17.1805 3.66011 17.1823C4.08789 17.182 4.50977 17.2797 4.89183 17.4677L9.81472 19.8904C10.1822 18.7769 10.9019 17.806 11.8701 17.1177C12.8384 16.4293 14.0052 16.059 15.2027 16.06H23.5138ZM23.4307 18.8912H15.2844C13.7391 18.8912 12.4832 20.0973 12.4591 21.5954V25.8474C12.4591 27.3507 13.6989 28.5725 15.2375 28.5974H23.4307C24.9761 28.5974 26.2319 27.39 26.2574 25.8932V21.6412C26.2561 20.9181 25.9639 20.2245 25.4438 19.7101C24.9238 19.1956 24.2176 18.9015 23.4776 18.8912H23.4307ZM4.56882 20.5857C4.37442 20.5853 4.18761 20.6594 4.04853 20.7922C3.90944 20.9249 3.82917 21.1056 3.82496 21.2955V26.1852C3.826 26.308 3.85879 26.4285 3.9203 26.5356C3.9818 26.6427 4.07002 26.7328 4.17675 26.7976C4.28348 26.8625 4.40526 26.8999 4.53075 26.9063C4.65624 26.9128 4.78138 26.8882 4.89451 26.8348L4.90792 26.8295L9.54934 24.53V22.9298L4.90256 20.6643C4.79902 20.6133 4.68479 20.5864 4.56882 20.5857ZM11.4043 0C12.7714 0.000744352 14.1131 0.361813 15.2877 1.04515C16.4624 1.72849 17.4267 2.70879 18.0789 3.88274C19.3023 2.77128 20.9118 2.15489 22.5823 2.1581C26.2199 2.1581 29.1672 5.00893 29.1672 8.52631C29.1672 12.0437 26.2185 14.8945 22.5837 14.8945C21.5388 14.8969 20.5083 14.6566 19.5771 14.1935C18.646 13.7304 17.8408 13.0578 17.2279 12.231C16.5167 13.0652 15.6262 13.7363 14.6198 14.1966C13.6134 14.657 12.5156 14.8952 11.4043 14.8945C7.20785 14.8945 3.80486 11.5605 3.80486 7.44726C3.80486 3.33405 7.20785 0 11.4043 0ZM22.5823 5.14119C20.651 5.14119 19.0842 6.65631 19.0842 8.52631C19.0842 10.3963 20.651 11.9114 22.5823 11.9114C24.5164 11.9114 26.0831 10.3963 26.0831 8.52631C26.0831 6.65631 24.515 5.14119 22.5823 5.14119ZM11.4043 2.99488C10.8067 2.99574 10.2152 3.11159 9.66349 3.3358C9.11176 3.56002 8.61064 3.88822 8.18873 4.30166C7.76682 4.71511 7.43238 5.20569 7.20452 5.74542C6.97666 6.28514 6.85984 6.86343 6.86072 7.44726C6.86072 9.90524 8.89528 11.8996 11.4043 11.8996C12.0019 11.8988 12.5934 11.7829 13.1451 11.5587C13.6968 11.3345 14.198 11.0063 14.6199 10.5929C15.0418 10.1794 15.3762 9.68883 15.6041 9.14911C15.8319 8.60939 15.9488 8.0311 15.9479 7.44726C15.9479 4.98798 13.9133 2.99488 11.4043 2.99488Z" fill="#23417E"/>
</svg>
