<svg width="69" height="75" viewBox="0 0 69 75" fill="none" xmlns="http://www.w3.org/2000/svg">
<path d="M34.4882 0.00488281L28.4626 11.3167C27.7786 12.5462 26.5543 12.4326 25.3289 11.7456L20.9658 9.47164L24.218 26.8461C24.9022 30.0206 22.7083 30.0206 21.6254 28.6485L14.0124 20.0716L12.7759 24.428C12.634 25 12.0066 25.6002 11.0663 25.4569L1.43969 23.4209L3.96831 32.6729C4.50973 34.732 4.93132 35.5845 3.4216 36.1279L-0.00976562 37.7512L16.5627 51.2997C17.2193 51.8121 17.5505 52.7346 17.3171 53.5686L15.8664 58.3592L32.394 56.4439C32.9012 56.4375 33.2326 56.7207 33.2289 57.3075L32.2116 75.0111H36.7688L35.7513 57.3075C35.7476 56.7207 36.0793 56.4372 36.5865 56.4439L53.114 58.3592L51.6634 53.5686C51.4297 52.7346 51.7609 51.8121 52.4176 51.2997L68.99 37.7512L65.5586 36.1279C64.0491 35.5845 64.4707 34.732 65.0119 32.6729L67.5405 23.4209L57.9139 25.4569C56.9739 25.6002 56.3464 25 56.2043 24.428L54.9678 20.0716L47.3544 28.6499C46.2718 30.022 44.0778 30.022 44.762 26.8475L48.014 9.47303L43.6509 11.747C42.4252 12.434 41.2012 12.5476 40.5169 11.3181L34.4932 0.00742242L34.4882 0.00488281Z" fill="#D40000"/>
</svg>
