<svg width="86" height="91" viewBox="0 0 86 91" fill="none" xmlns="http://www.w3.org/2000/svg">
<g clip-path="url(#clip0_284_815)">
<path d="M52.6374 8.92845L43.9026 18.253C42.9251 19.2589 41.7721 18.8329 40.7659 17.8548L37.1388 14.5379L35.8001 32.0961C35.6425 35.3275 33.5238 34.7598 32.8319 33.1595L27.6915 22.9375L25.3744 26.809C25.0899 27.3227 24.3293 27.7378 23.4583 27.3566L14.6871 22.9068L14.7437 32.4629C14.7357 34.5841 14.923 35.5134 13.325 35.6456L9.59301 36.3196L22.1034 53.6432C22.6054 54.3062 22.6874 55.2794 22.247 56.0214L19.6111 60.2554L36.0649 62.6891C36.5563 62.8141 36.8033 63.1723 36.6485 63.736L31.102 80.5062L35.5028 81.6853L39.0843 64.3886C39.232 63.8231 39.6254 63.6362 40.1134 63.7739L55.5796 69.8931L55.4138 64.9085C55.4032 64.0456 55.9608 63.2437 56.727 62.9206L76.2232 54.1731L73.3282 51.7234C72.0106 50.81 72.6375 50.0989 73.691 48.2577L78.518 40.0102L68.697 39.4783C67.7523 39.373 67.3012 38.6331 67.3114 38.046L67.2405 33.5346L57.677 39.8181C56.2778 40.8582 54.1592 40.2905 55.6383 37.4132L63.2578 21.5379L58.4583 22.5969C57.0976 22.9408 55.8863 22.7333 55.5425 21.3733L52.6417 8.9322L52.6374 8.92845Z" fill="#D40000"/>
</g>
<defs>
<clipPath id="clip0_284_815">
<rect width="68.9809" height="74.7063" fill="white" transform="translate(19.3359) rotate(15)"/>
</clipPath>
</defs>
</svg>
