<svg width="62" height="20" viewBox="0 0 62 20" fill="none" xmlns="http://www.w3.org/2000/svg">
<path d="M57.2347 4.96001C57.2398 4.99667 57.2602 5.00583 57.4135 5.00354H59.2656C59.5714 5.00439 59.8736 4.94341 60.1496 4.82515C60.4256 4.70688 60.6683 4.53436 60.8597 4.32041C61.0512 4.10647 61.1864 3.85658 61.2554 3.58933C61.3243 3.32207 61.3253 3.04431 61.2581 2.77669C61.1496 2.32904 60.8568 1.93458 60.4382 1.67211C60.0196 1.40963 59.5059 1.29848 58.9999 1.36085C58.5085 1.41842 58.0575 1.63514 57.7319 1.97019C57.4063 2.30523 57.2286 2.73548 57.2321 3.17991C57.2321 3.4113 57.227 4.70571 57.2347 4.96001ZM27.8341 15.9751C27.3155 15.9774 24.3777 15.9843 23.5296 15.982C22.8646 15.9778 22.2043 15.8804 21.5728 15.6933C21.5579 15.6894 21.5418 15.6905 21.5277 15.6964C21.5136 15.7023 21.5024 15.7126 21.4962 15.7254L19.6696 19.2742C19.663 19.2871 19.662 19.3017 19.6667 19.3152C19.6714 19.3288 19.6816 19.3403 19.6952 19.3475C19.9787 19.485 20.5535 19.6316 20.9597 19.6316C22.6457 19.6545 24.3317 19.6362 26.0203 19.6316C26.0493 19.6316 26.0689 19.6201 26.0791 19.5972L27.8979 16.0576C27.9029 16.0486 27.9051 16.0386 27.9044 16.0286C27.9036 16.0186 27.9 16.0089 27.8938 16.0005C27.8876 15.9922 27.879 15.9854 27.869 15.981C27.859 15.9765 27.8478 15.9745 27.8366 15.9751H27.8341ZM1.21795 5.03103C1.03658 5.03103 1.02381 5.03562 1.02381 5.05394L0.998262 5.23722C0.929288 6.14675 0.901188 6.37127 0.400491 12.2477C0.369836 12.7975 0.313636 13.1389 0.0556235 13.6383C-0.0107954 13.7689 -0.0286774 13.7345 0.0632873 13.8949C0.180798 14.1057 1.80295 17.3841 2.07374 17.8813C2.09417 17.9156 2.10184 17.9271 2.11716 17.9271C2.1376 17.9271 2.20147 17.8675 2.23723 17.8263C2.6102 17.3956 2.92611 16.9328 3.18498 16.4379C3.96668 14.9831 4.30899 13.4023 4.4265 12.5295C4.46226 12.2775 4.48015 12.0255 4.50314 11.7734L5.02427 5.78019L5.08047 5.10893C5.08813 5.04249 5.08047 5.03333 5.00383 5.03103H1.21795ZM19.6186 13.6383C19.3888 13.2038 19.2709 12.7286 19.2737 12.2477C19.2635 12.0552 19.1945 11.3542 18.6734 5.23722C18.6721 5.17398 18.6635 5.11103 18.6478 5.04936C18.6376 5.02416 18.515 5.03103 18.4537 5.03103H14.6729C14.5963 5.03333 14.586 5.04249 14.5963 5.10893L14.6499 5.78019C14.8441 8.02995 15.0425 10.2797 15.2451 12.5295C15.3729 13.4459 15.7203 15.0152 16.4892 16.4379C16.7523 16.9305 17.0589 17.3978 17.4344 17.8263C17.4727 17.8675 17.5289 17.9431 17.557 17.9385C17.6081 17.9317 19.4525 14.1767 19.6109 13.8949C19.7029 13.7345 19.6875 13.7689 19.6186 13.6383ZM29.4818 11.5466H27.2542C27.2001 11.5471 27.1467 11.5354 27.0991 11.5124C27.0514 11.4895 27.0109 11.4562 26.9814 11.4156C26.9518 11.3749 26.9342 11.3283 26.9301 11.2799C26.926 11.2315 26.9355 11.183 26.9578 11.1388L29.9671 5.12497C29.9714 5.11623 29.9731 5.10669 29.9722 5.0972C29.9713 5.0877 29.9678 5.07856 29.962 5.0706C29.9561 5.06264 29.9482 5.05611 29.9388 5.0516C29.9295 5.04709 29.919 5.04475 29.9084 5.04478L26.5415 5.03791C26.4779 5.03814 26.4153 5.024 26.3594 4.99678C26.3035 4.96957 26.2562 4.93016 26.2219 4.8822C26.1875 4.83424 26.1671 4.77928 26.1627 4.7224C26.1583 4.66553 26.17 4.60857 26.1966 4.5568L28.4344 0.080185C28.4386 0.0714533 28.4404 0.0619091 28.4395 0.0524164C28.4386 0.0429237 28.4351 0.0337818 28.4292 0.02582C28.4234 0.0178582 28.4154 0.0113279 28.4061 0.00681932C28.3967 0.00231074 28.3863 -3.28773e-05 28.3756 3.48418e-07H24.3905C24.3615 3.48418e-07 24.3411 0.011455 24.3292 0.034365L21.9637 4.77215C21.7465 5.15933 21.1615 6.22464 20.9444 6.92111C20.896 7.06264 20.8786 7.21124 20.8933 7.35869C20.9022 7.5357 20.9606 7.70784 21.0633 7.85921C21.166 8.01057 21.3096 8.13627 21.4808 8.22469C21.8424 8.39891 22.2455 8.49243 22.6559 8.49732H24.1631C24.2679 8.49732 22.4056 11.8926 22.0326 13.0152C21.9876 13.1424 21.9677 13.2758 21.9739 13.4092C21.9766 13.5936 22.032 13.7743 22.1349 13.9339C22.2377 14.0936 22.3846 14.2269 22.5614 14.321C22.9446 14.5318 23.4351 14.596 23.7748 14.596L28.0154 14.5937C28.0444 14.5937 28.064 14.5822 28.0742 14.5593L29.5431 11.6268C29.5474 11.6179 29.5492 11.6082 29.5482 11.5985C29.5471 11.5888 29.5434 11.5795 29.5372 11.5715C29.5311 11.5634 29.5228 11.557 29.5131 11.5526C29.5034 11.5483 29.4926 11.5462 29.4818 11.5466ZM11.7786 0.235973H7.9186C7.90723 0.235328 7.89583 0.236825 7.88514 0.240365C7.87444 0.243906 7.86469 0.249412 7.85651 0.256531C7.84834 0.263651 7.84191 0.272226 7.83764 0.281705C7.83338 0.291185 7.83137 0.301359 7.83175 0.311576C7.83175 2.71254 7.8062 6.71492 7.8062 15.9568C7.8062 16.6166 7.11902 16.5571 7.09092 16.5571H5.20054C5.09835 16.5593 5.08814 16.5662 5.09835 16.6647C5.10091 16.7495 6.28623 19.1024 6.51614 19.5583C6.54169 19.6041 6.59278 19.6339 6.64642 19.6339C7.04749 19.6407 8.60578 19.6545 9.04262 19.6018C9.43347 19.556 9.80899 19.4643 10.1615 19.2994C10.9279 18.942 11.4133 18.3394 11.6815 17.5468C11.8143 17.1527 11.8731 16.738 11.8731 16.3257C11.8782 10.9876 11.8722 5.64884 11.8552 0.309285C11.856 0.299482 11.8544 0.289649 11.8505 0.280447C11.8467 0.271244 11.8407 0.262887 11.8329 0.255939C11.8252 0.248991 11.8159 0.243614 11.8056 0.24017C11.7954 0.236725 11.7844 0.235294 11.7735 0.235973H11.7786ZM41.8817 16.0347C41.8783 16.0042 41.8578 15.9874 41.8204 15.9843H38.0779C37.9553 15.982 37.9527 15.9797 37.9502 15.872V5.19599C37.9502 5.03104 37.9374 5.03562 38.129 5.03562H40.3336C40.538 5.03562 40.5252 5.04478 40.5252 4.86608V1.55559C40.5252 1.36773 40.5405 1.38147 40.3208 1.38147H31.3798C31.2163 1.38147 31.1882 1.36773 31.1882 1.54872V4.85921C31.1882 5.04936 31.1729 5.03562 31.3926 5.03562H33.5742C33.7658 5.03562 33.753 5.02645 33.753 5.19599V15.7896C33.753 16.0072 33.7735 15.982 33.5359 15.982C32.5907 15.982 30.7003 15.9774 30.2047 15.982C30.0821 15.9843 30.0514 16.0507 30.0514 16.0507L28.2709 19.5308C28.2709 19.5308 28.2351 19.588 28.2505 19.6132C28.2658 19.6384 28.2837 19.6316 28.3986 19.6316C32.864 19.6362 37.3286 19.6377 41.7923 19.6362C41.8689 19.6339 41.8791 19.6224 41.8817 19.5606V16.0347ZM52.5521 8.17658C52.5521 8.20865 52.5351 8.22698 52.501 8.23156C51.6172 8.24531 50.7333 8.24072 49.8519 8.24072C49.8162 8.23614 49.7974 8.21781 49.7957 8.18574C49.7855 7.19145 49.777 6.19639 49.7702 5.20057C49.7702 5.03562 49.7549 5.03791 49.949 5.0402L51.8215 5.03333C51.9263 5.03333 52.0284 5.03791 52.1281 5.06769C52.3656 5.12496 52.5368 5.31283 52.5496 5.53505C52.5649 6.52248 52.5547 8.17658 52.5521 8.17658ZM59.3728 8.73558C58.6762 8.40879 57.9033 8.23451 57.1171 8.22698H56.6573C56.5551 8.22469 56.5551 8.22011 56.55 8.13534V5.71833C56.5517 5.41592 56.5305 5.11504 56.4862 4.81568C56.4262 4.39533 56.2944 3.98578 56.0953 3.60145C55.7336 2.9037 55.1258 2.3321 54.3659 1.97484C53.5787 1.59882 52.7031 1.39622 51.8113 1.38376C51.4204 1.37689 50.3629 1.38376 49.972 1.38376C49.7932 1.38376 49.7983 1.39293 49.7983 1.23485V0.105386C49.7983 0.0343653 49.7728 0.0114553 49.6808 0.0160373H45.8029C45.8029 0.0160373 45.7621 0.0160372 45.7442 0.0320742C45.7306 0.0442929 45.7238 0.0618567 45.7238 0.0847666V1.33565C45.7033 1.41813 45.5781 1.37002 45.5143 1.38606H43.0874C43.0312 1.39064 43.0159 1.40438 43.0108 1.45937V4.85234C43.0108 5.05853 43.0006 5.0402 43.2203 5.0402H45.5526C45.7621 5.0402 45.7365 5.33345 45.7365 5.33345V7.96351C45.7365 7.96351 45.7442 8.23156 45.5832 8.23156H41.7974C41.6237 8.23156 41.6441 8.41942 41.6441 8.41942V11.7299C41.6441 11.7299 41.6185 11.8857 41.8076 11.8857H45.5296C45.7391 11.8857 45.7238 11.872 45.7238 12.0667V19.4552C45.7238 19.6568 45.7059 19.6407 45.9332 19.6407H49.5863C49.8162 19.6407 49.7957 19.6568 49.7957 19.4575V11.9659C49.7957 11.8995 49.8111 11.8857 49.88 11.8857L55.8143 11.8788C56.0609 11.8807 56.3045 11.9283 56.5296 12.0186C56.7325 12.0989 56.9059 12.2291 57.0298 12.3941C57.1536 12.5591 57.2229 12.7522 57.2296 12.951C57.25 13.856 57.2372 14.7609 57.2372 15.6659C57.2372 16.2592 56.9639 16.5066 56.3942 16.5066H53.2827C53.224 16.5112 53.2087 16.525 53.2112 16.5823C53.6813 17.5827 54.1666 18.5777 54.6673 19.5674C54.6775 19.5842 54.6921 19.5984 54.71 19.6088C54.7278 19.6192 54.7483 19.6255 54.7695 19.627C55.2038 19.6384 55.6381 19.6316 56.0723 19.6339C56.4555 19.6293 57.393 19.643 57.7737 19.611C58.1268 19.5862 58.4761 19.5286 58.8159 19.4391C60.3231 19.0267 61.3067 17.84 61.3092 16.431V11.8926C61.3109 11.6009 61.282 11.3107 61.2224 11.022C61.2224 11.2007 61.1483 9.55347 59.3728 8.73558Z" fill="#23417E"/>
</svg>
