<svg width="32" height="32" viewBox="0 0 32 32" fill="none" xmlns="http://www.w3.org/2000/svg">
<path d="M0 16C0 7.16344 7.16344 0 16 0C24.8366 0 32 7.16344 32 16C32 24.8366 24.8366 32 16 32C7.16344 32 0 24.8366 0 16Z" fill="#23417E"/>
<path d="M16.0007 15.4998V23.9998M16.0007 23.9998L19.0007 20.9998M16.0007 23.9998L13.0007 20.9998M12.0007 11.0358C12.7487 11.1439 13.4416 11.4913 13.9757 12.0258M21.5007 17.9998C23.0197 17.9998 24.0007 16.7688 24.0007 15.2498C24.0007 14.6484 23.8035 14.0637 23.4394 13.585C23.0753 13.1064 22.5643 12.7603 21.9847 12.5998C21.8956 11.4783 21.4308 10.4196 20.6654 9.59491C19.9001 8.77024 18.879 8.22778 17.7673 8.05525C16.6555 7.88271 15.518 8.09018 14.5387 8.64411C13.5595 9.19804 12.7956 10.0661 12.3707 11.1078C11.4762 10.8598 10.5197 10.9774 9.71182 11.4346C8.90392 11.8918 8.31073 12.6512 8.06275 13.5458C7.81477 14.4404 7.93232 15.3968 8.38953 16.2047C8.84675 17.0127 9.60617 17.6058 10.5007 17.8538" stroke="white" stroke-width="2" stroke-linecap="round" stroke-linejoin="round"/>
</svg>
