<svg width="20" height="20" viewBox="0 0 20 20" fill="none" xmlns="http://www.w3.org/2000/svg">
<path d="M9.99967 19.1666C15.0623 19.1666 19.1663 15.0625 19.1663 9.99992C19.1663 4.93731 15.0623 0.833252 9.99967 0.833252M9.99967 19.1666C4.93706 19.1666 0.833008 15.0625 0.833008 9.99992C0.833008 4.93731 4.93706 0.833252 9.99967 0.833252M9.99967 19.1666C12.4997 19.1666 13.333 14.9999 13.333 9.99992C13.333 4.99992 12.4997 0.833252 9.99967 0.833252M9.99967 19.1666C7.49967 19.1666 6.66634 14.9999 6.66634 9.99992C6.66634 4.99992 7.49967 0.833252 9.99967 0.833252M1.66634 13.3333H18.333M1.66634 6.66659H18.333" stroke="#23417E" stroke-width="1.25"/>
</svg>
