<svg width="71" height="71" viewBox="0 0 71 71" fill="none" xmlns="http://www.w3.org/2000/svg">
<path fill-rule="evenodd" clip-rule="evenodd" d="M35.0544 41.1775C26.4917 29.2088 19.4871 16.1947 10.612 4.37399C9.77555 3.31262 10.0002 1.72755 11.1006 0.906148C12.2019 0.0849167 13.7791 0.261879 14.5982 1.42172C23.5039 13.2479 30.538 26.2671 39.1312 38.2412C39.9266 39.3969 39.6627 40.9746 38.5357 41.7914C37.4271 42.5098 35.8498 42.3332 35.0544 41.1775Z" fill="#EC8305"/>
<path fill-rule="evenodd" clip-rule="evenodd" d="M3.62001 54.6429C9.49252 55.983 15.3651 57.3225 21.2386 58.6628C22.5957 58.9021 23.435 60.2692 23.126 61.6363C22.8159 63.0032 21.4872 63.7838 20.1291 63.5443C14.2467 62.2025 8.36527 60.8614 2.4839 59.5197C1.1442 59.1819 0.311667 57.8164 0.628635 56.4507C0.928238 55.1835 2.28129 54.3053 3.62001 54.6429Z" fill="#EC8305"/>
<path fill-rule="evenodd" clip-rule="evenodd" d="M61.8911 31.8197C61.2337 25.2051 61.505 18.449 61.8164 11.9036C61.8881 10.4946 63.0701 9.3832 64.4346 9.52227C65.8176 9.56304 66.8768 10.7658 66.8224 12.0763C66.5153 18.4193 66.2287 24.9685 66.8722 31.276C67.0157 32.6214 66.0123 33.8667 64.635 34.03C63.2587 34.1935 62.0356 33.1653 61.8911 31.8197Z" fill="#EC8305"/>
</svg>
