<svg width="34" height="33" viewBox="0 0 34 33" fill="none" xmlns="http://www.w3.org/2000/svg">
<path d="M17.2972 0H17.4475C20.1942 0 22.3576 2.98023e-08 24.0925 0.1575C25.8635 0.3165 27.3338 0.6495 28.6478 1.407C30.2475 2.32853 31.5759 3.65393 32.4995 5.25C33.2587 6.561 33.5925 8.028 33.7518 9.795C33.9097 11.526 33.9097 13.6845 33.9097 16.425V16.575C33.9097 19.3155 33.9097 21.474 33.7518 23.205C33.5925 24.972 33.2587 26.439 32.4995 27.75C31.5759 29.3461 30.2475 30.6715 28.6478 31.593C27.3338 32.3505 25.8635 32.6835 24.0925 32.8425C22.3576 33 20.1942 33 17.4475 33H17.2972C14.5505 33 12.3871 33 10.6521 32.8425C8.88114 32.6835 7.41082 32.3505 6.09685 31.593C4.49717 30.6715 3.16877 29.3461 2.24515 27.75C1.48593 26.439 1.15218 24.972 0.992818 23.205C0.834961 21.474 0.834961 19.3155 0.834961 16.575V16.425C0.834961 13.6845 0.834961 11.526 0.992818 9.795C1.15218 8.028 1.48593 6.561 2.24515 5.25C3.16877 3.65393 4.49717 2.32853 6.09685 1.407C7.41082 0.6495 8.88114 0.3165 10.6521 0.1575C12.3871 2.98023e-08 14.5505 0 17.2972 0ZM10.9228 3.144C9.36073 3.2865 8.38051 3.555 7.60025 4.005C6.45762 4.66324 5.50876 5.60995 4.84903 6.75C4.39801 7.5285 4.1274 8.5065 3.98608 10.065C3.84326 11.646 3.84176 13.668 3.84176 16.5C3.84176 19.332 3.84326 21.354 3.98608 22.935C4.1289 24.4935 4.39801 25.4715 4.84903 26.25C5.50876 27.39 6.45762 28.3368 7.60025 28.995C8.38051 29.445 9.36073 29.715 10.9228 29.856C12.5073 29.9985 14.5339 30 17.3723 30C20.2107 30 22.2373 29.9985 23.8219 29.856C25.3839 29.7135 26.3642 29.445 27.1444 28.995C28.287 28.3368 29.2359 27.39 29.8956 26.25C30.3467 25.4715 30.6173 24.4935 30.7586 22.935C30.9014 21.3555 30.9029 19.332 30.9029 16.5C30.9029 13.668 30.9014 11.646 30.7586 10.065C30.6158 8.5065 30.3467 7.5285 29.8956 6.75C29.2359 5.60995 28.287 4.66324 27.1444 4.005C26.3642 3.555 25.3839 3.285 23.8219 3.144C22.2388 3.0015 20.2107 3 17.3723 3C14.5339 3 12.5073 3.0015 10.9228 3.144ZM24.5135 7.878C24.5135 7.05 25.19 6.375 26.0199 6.375C26.8497 6.375 27.5263 7.05 27.5263 7.878C27.5263 8.706 26.8497 9.381 26.0199 9.381C25.19 9.381 24.5135 8.706 24.5135 7.878ZM17.3723 11.25C16.6813 11.25 15.9971 11.3858 15.3587 11.6496C14.7203 11.9135 14.1402 12.3002 13.6516 12.7877C13.163 13.2752 12.7754 13.854 12.511 14.4909C12.2465 15.1279 12.1104 15.8106 12.1104 16.5C12.1104 17.1894 12.2465 17.8721 12.511 18.5091C12.7754 19.146 13.163 19.7248 13.6516 20.2123C14.1402 20.6998 14.7203 21.0865 15.3587 21.3504C15.9971 21.6142 16.6813 21.75 17.3723 21.75C18.7679 21.75 20.1063 21.1969 21.0931 20.2123C22.0798 19.2277 22.6342 17.8924 22.6342 16.5C22.6342 15.1076 22.0798 13.7723 21.0931 12.7877C20.1063 11.8031 18.7679 11.25 17.3723 11.25ZM9.10365 16.5C9.10365 14.312 9.97481 12.2135 11.5255 10.6664C13.0762 9.11919 15.1793 8.25 17.3723 8.25C19.5653 8.25 21.6685 9.11919 23.2192 10.6664C24.7699 12.2135 25.641 14.312 25.641 16.5C25.641 18.688 24.7699 20.7865 23.2192 22.3336C21.6685 23.8808 19.5653 24.75 17.3723 24.75C15.1793 24.75 13.0762 23.8808 11.5255 22.3336C9.97481 20.7865 9.10365 18.688 9.10365 16.5Z" fill="#23417E"/>
</svg>
