<svg width="60" height="60" viewBox="0 0 60 60" fill="none" xmlns="http://www.w3.org/2000/svg">
<g clip-path="url(#clip0_363_777)">
<path d="M58.172 7.23933C60.6103 9.67765 60.6103 13.6453 58.172 16.0836L29.1592 45.0962C28.3512 45.9042 27.29 46.3082 26.2287 46.3082C25.1675 46.3082 24.1062 45.9042 23.2982 45.0962L9.19592 30.9939C6.75761 28.5556 6.75761 24.588 9.19592 22.1497C11.6342 19.7113 15.6018 19.7113 18.0402 22.1497L26.2287 30.3366L49.3278 7.23933C50.5477 6.02094 52.1476 5.41016 53.7506 5.41016C55.3505 5.41016 56.9536 6.02094 58.172 7.23933ZM55.9051 13.8168C57.0931 12.6274 57.0931 10.694 55.9051 9.50609C54.7172 8.31816 52.7823 8.31816 51.5944 9.50609L28.2616 32.839C27.7182 33.3824 26.9968 33.6806 26.2289 33.6806C25.4609 33.6806 24.7396 33.3825 24.1978 32.839L15.7735 24.4164C15.1788 23.8217 14.3996 23.5251 13.6189 23.5251C12.8382 23.5251 12.0575 23.8217 11.4628 24.4164C10.2749 25.6043 10.2749 27.5376 11.4628 28.7271L25.5651 42.8295C25.9306 43.195 26.527 43.195 26.8925 42.8295L55.9051 13.8168Z" fill="#1E0478"/>
<path d="M55.9036 9.50606C57.0915 10.694 57.0915 12.6272 55.9036 13.8168L26.891 42.8294C26.5254 43.1949 25.9291 43.1949 25.5636 42.8294L11.4613 28.7271C10.2733 27.5377 10.2733 25.6043 11.4613 24.4164C12.056 23.8217 12.8367 23.5251 13.6174 23.5251C14.3981 23.5251 15.1771 23.8217 15.772 24.4164L24.1962 32.839C24.7381 33.3824 25.4595 33.6806 26.2273 33.6806C26.9951 33.6806 27.7165 33.3825 28.2601 32.839L51.593 9.50606C52.7808 8.31813 54.7158 8.31813 55.9036 9.50606Z" fill="#94E7EF"/>
<path d="M52.7015 28.1068C52.7463 28.7289 52.7688 29.3653 52.7688 30.0001C52.7688 44.5481 40.9333 56.3838 26.3852 56.3838C11.8371 56.3838 0 44.5481 0 30C0 15.4519 11.8372 3.61646 26.3852 3.61646C32.1467 3.61646 37.6196 5.44083 42.2109 8.89058C42.9194 9.42285 43.0621 10.428 42.5298 11.135C41.9976 11.8435 40.9925 11.9862 40.2855 11.4539C36.2521 8.42406 31.446 6.82258 26.3851 6.82258C13.6038 6.82258 3.20613 17.2203 3.20613 30C3.20613 42.7797 13.6038 53.1774 26.3852 53.1774C39.165 53.1774 49.5626 42.7797 49.5626 30C49.5626 29.4421 49.5417 28.8826 49.5033 28.3376C49.4392 27.4542 50.1045 26.6864 50.9862 26.6223C51.8711 26.5598 52.6374 27.2235 52.7015 28.1068Z" fill="#1E0478"/>
</g>
<defs>
<clipPath id="clip0_363_777">
<rect width="60" height="60" fill="white"/>
</clipPath>
</defs>
</svg>
