<svg width="855" height="706" viewBox="0 0 855 706" fill="none" xmlns="http://www.w3.org/2000/svg">
<path d="M405.523 0.541398L341.263 118.82C333.936 131.675 319.479 130.468 304.675 123.26L252.066 99.3946L300.387 281.261C310.274 314.492 284.484 314.458 270.958 300.082L176.486 210.209L164.481 255.778C163.145 261.762 156.118 268.032 144.983 266.518L30.6387 245.061L65.7364 341.919C73.2967 363.475 78.7477 372.403 61.3165 378.065L21.9236 394.998L224.602 537.037C232.618 542.41 237.047 552.068 234.787 560.792L220.518 610.902L413.687 591.118C419.645 591.059 423.705 594.028 424.003 600.168L422.327 785.413L475.897 785.484L453.654 600.208C453.27 594.067 457.004 591.106 462.969 591.184L658.363 611.486L638.529 561.331C635.297 552.6 638.655 542.952 646.076 537.6L833.016 396.081L791.737 379.041C773.678 373.331 778.138 364.416 783.304 342.877L807.654 246.098L695.675 267.253C684.709 268.738 676.985 262.448 674.982 256.459L657.917 210.852L573.403 300.5C561.474 314.842 535.683 314.807 541.883 281.598L570.019 99.8336L520.051 123.562C506.042 130.731 491.72 131.901 482.962 119.024L405.584 0.568053L405.523 0.541398Z" fill="#EEA284" fill-opacity="0.15"/>
</svg>
