<svg width="60" height="78" viewBox="0 0 60 78" fill="none" xmlns="http://www.w3.org/2000/svg">
<g clip-path="url(#clip0_358_740)">
<path fill-rule="evenodd" clip-rule="evenodd" d="M20.4905 66H20.4H14C12.8954 66 12 65.1044 12 64C12 62.8956 12.8954 62 14 62H20.4C24.9134 62 28.1782 61.9984 30.7459 61.7888C33.2902 61.5808 34.9735 61.1784 36.3559 60.474C38.9901 59.132 41.132 56.9901 42.474 54.3559C43.1784 52.9735 43.5808 51.2902 43.7888 48.7459C43.9984 46.1782 44 42.9134 44 38.4V32C44 30.8954 44.8956 30 46 30C47.1044 30 48 30.8954 48 32V38.4V38.4905C48 42.8944 48 46.3221 47.7752 49.0716C47.5472 51.8634 47.0776 54.1316 46.038 56.1718C44.3124 59.5588 41.5588 62.3124 38.1718 64.038C36.1316 65.0776 33.8634 65.5472 31.0716 65.7752C28.3221 66 24.8944 66 20.4905 66Z" fill="#EC8305"/>
<path fill-rule="evenodd" clip-rule="evenodd" d="M32.4905 76.2149H32.4H26C24.8954 76.2149 24 75.316 24 74.2076C24 73.0991 24.8954 72.2002 26 72.2002H32.4C36.9134 72.2002 40.1782 72.1986 42.7459 71.9883C45.2902 71.7795 46.9735 71.3756 48.3559 70.6687C50.9901 69.3218 53.132 67.172 54.474 64.5282C55.1784 63.1408 55.5808 61.4513 55.7888 58.8977C55.9984 56.3206 56 53.0439 56 48.514V42.0906C56 40.982 56.8956 40.0833 58 40.0833C59.1044 40.0833 60 40.982 60 42.0906V48.514V48.6048C60 53.0248 60 56.465 59.7752 59.2246C59.5472 62.0265 59.0776 64.3031 58.038 66.3508C56.3124 69.7501 53.5588 72.5138 50.1718 74.2457C48.1316 75.2891 45.8634 75.7604 43.0716 75.9892C40.3221 76.2149 36.8944 76.2149 32.4905 76.2149Z" fill="white"/>
</g>
<g clip-path="url(#clip1_358_740)">
<path d="M45 7C46.7259 7 48.125 13.2741 48.125 15C48.125 16.7259 46.7259 18.125 45 18.125C43.2741 18.125 41.875 16.7259 41.875 15C41.875 13.2741 43.2741 7 45 7Z" fill="#EC8305"/>
<path d="M57 20.4618C58.7259 20.4618 60.125 26.1539 60.125 27.6041C60.125 29.0543 58.7259 30.2299 57 30.2299C55.2741 30.2299 53.875 29.0543 53.875 27.6041C53.875 26.1539 55.2741 20.4618 57 20.4618Z" fill="white"/>
</g>
<defs>
<clipPath id="clip0_358_740">
<rect width="60" height="60" fill="white" transform="translate(0 18)"/>
</clipPath>
<clipPath id="clip1_358_740">
<rect width="30" height="30" fill="white" transform="translate(30)"/>
</clipPath>
</defs>
</svg>
