<svg width="68" height="68" viewBox="0 0 68 68" fill="none" xmlns="http://www.w3.org/2000/svg">
<path d="M58.2624 9.46329C57.8549 9.18594 57.3823 9.01945 56.891 8.98021C56.3996 8.94096 55.9065 9.03031 55.4602 9.23946L7.29356 31.9061C6.8012 32.1381 6.38609 32.507 6.09786 32.9687C5.80963 33.4304 5.66049 33.9654 5.66826 34.5096C5.67603 35.0538 5.84039 35.5843 6.14168 36.0376C6.44297 36.4909 6.86845 36.8478 7.36722 37.0656L22.6672 43.7608V62.8065L39.2026 50.9971L52.7006 56.9018C53.1173 57.0843 53.5718 57.1638 54.0257 57.1335C54.4797 57.1033 54.9196 56.9641 55.3084 56.7279C55.6972 56.4917 56.0234 56.1653 56.2595 55.7764C56.4955 55.3874 56.6344 54.9474 56.6644 54.4935L59.4977 11.9935C59.5288 11.5008 59.4312 11.0086 59.2147 10.565C58.9981 10.1214 58.6699 9.74178 58.2624 9.46329ZM51.2754 50.0933L36.3466 43.5596L45.3339 25.9731L23.6617 38.0148L15.3544 34.3796L53.5222 16.4163L51.2754 50.0933Z" fill="#23417E"/>
</svg>
