<svg width="65" height="65" viewBox="0 0 65 65" fill="none" xmlns="http://www.w3.org/2000/svg">
<path d="M32.5 8.125L36.3735 22.5112C36.8461 24.2667 37.0825 25.1444 37.5489 25.862C37.9616 26.497 38.503 27.0383 39.1381 27.4511C39.8556 27.9175 40.7333 28.1539 42.4889 28.6265L56.875 32.5L42.4889 36.3735C40.7333 36.8461 39.8556 37.0825 39.1381 37.5489C38.503 37.9616 37.9616 38.503 37.5489 39.1381C37.0825 39.8556 36.8461 40.7333 36.3735 42.4889L32.5 56.875L28.6265 42.4889C28.1539 40.7333 27.9175 39.8556 27.4511 39.1381C27.0383 38.503 26.497 37.9616 25.862 37.5489C25.1444 37.0825 24.2667 36.8461 22.5112 36.3735L8.125 32.5L22.5112 28.6265C24.2667 28.1539 25.1444 27.9175 25.862 27.4511C26.497 27.0383 27.0383 26.497 27.4511 25.862C27.9175 25.1444 28.1539 24.2667 28.6265 22.5112L32.5 8.125Z" stroke="#FFC843" stroke-width="5" stroke-linecap="round" stroke-linejoin="round"/>
</svg>
