<svg width="31" height="32" viewBox="0 0 31 32" fill="none" xmlns="http://www.w3.org/2000/svg">
<path d="M28.9516 7.85714C27.296 7.85529 25.7088 7.20427 24.5382 6.04693C23.3675 4.88958 22.709 3.32041 22.7071 1.68367C22.7071 1.23714 22.5277 0.808887 22.2083 0.493137C21.889 0.177387 21.4558 0 21.0041 0H15.3273C14.8756 0 14.4425 0.177387 14.1231 0.493137C13.8037 0.808887 13.6243 1.23714 13.6243 1.68367V20.2041C13.624 20.6058 13.5147 21.0001 13.3078 21.3458C13.1008 21.6916 12.8039 21.9761 12.4478 22.1697C12.0918 22.3632 11.6897 22.4588 11.2835 22.4464C10.8774 22.434 10.482 22.3141 10.1387 22.0992C9.79542 21.8843 9.51675 21.5822 9.33177 21.2245C9.14679 20.8668 9.06229 20.4666 9.08709 20.0656C9.11188 19.6647 9.24505 19.2776 9.47272 18.9449C9.70038 18.6121 10.0142 18.3458 10.3814 18.1739C10.6724 18.0372 10.9181 17.8217 11.0902 17.5525C11.2623 17.2833 11.3536 16.9714 11.3536 16.6529V10.6633C11.3535 10.4173 11.2988 10.1743 11.1935 9.95141C11.0882 9.72853 10.9348 9.53117 10.7441 9.37321C10.5533 9.21526 10.3299 9.10055 10.0895 9.03715C9.84904 8.97375 9.59749 8.9632 9.3525 9.00625C6.72945 9.48062 4.36177 10.8598 2.67093 12.8983C0.949127 14.9529 0.00474201 17.536 0 20.2041C0 23.181 1.19618 26.036 3.32538 28.141C5.45459 30.246 8.34242 31.4286 11.3536 31.4286C14.3647 31.4286 17.2525 30.246 19.3818 28.141C21.511 26.036 22.7071 23.181 22.7071 20.2041V15.5277C24.672 16.3945 26.8 16.8406 28.9516 16.8367C29.4033 16.8367 29.8364 16.6593 30.1558 16.3436C30.4752 16.0278 30.6546 15.5996 30.6546 15.1531V9.54082C30.6546 9.09428 30.4752 8.66603 30.1558 8.35028C29.8364 8.03453 29.4033 7.85714 28.9516 7.85714ZM27.2486 13.3501C25.3523 13.0849 23.55 12.3669 21.9975 11.2582C21.743 11.0774 21.4428 10.9696 21.1303 10.9466C20.8177 10.9237 20.5048 10.9865 20.2259 11.1281C19.9471 11.2697 19.7133 11.4846 19.5501 11.7491C19.3869 12.0137 19.3007 12.3177 19.3011 12.6276V20.2041C19.3011 22.2879 18.4637 24.2864 16.9733 25.7599C15.4829 27.2334 13.4614 28.0612 11.3536 28.0612C9.24576 28.0612 7.22428 27.2334 5.73384 25.7599C4.24339 24.2864 3.40607 22.2879 3.40607 20.2041C3.41132 18.7008 3.83868 17.2285 4.64053 15.9512C5.44238 14.6739 6.58723 13.6418 7.9475 12.9699V15.7143C7.17338 16.2883 6.56052 17.0484 6.16712 17.9224C5.77371 18.7964 5.61282 19.7553 5.69972 20.7081C5.78662 21.6609 6.11843 22.5759 6.66363 23.3662C7.20884 24.1566 7.94935 24.796 8.81483 25.2238C9.68032 25.6517 10.6421 25.8537 11.6087 25.8107C12.5754 25.7677 13.5149 25.4811 14.338 24.9781C15.1612 24.4752 15.8406 23.7726 16.3118 22.937C16.783 22.1015 17.0304 21.1607 17.0304 20.2041V3.36735H19.4515C19.8032 5.28402 20.7381 7.04896 22.1314 8.42637C23.5246 9.80379 25.3099 10.7281 27.2486 11.0758V13.3501Z" fill="#23417E"/>
</svg>
