<svg width="520" height="648" viewBox="0 0 520 648" fill="none" xmlns="http://www.w3.org/2000/svg">
<path d="M-46.2943 0.568391L-127.934 121.559C-137.254 134.709 -156.166 133.473 -175.648 126.099L-244.847 101.684L-178.158 287.726C-164.591 321.719 -198.285 321.683 -216.238 306.977L-341.422 215.039L-356.214 261.653C-357.842 267.774 -366.9 274.188 -381.478 272.638L-531.285 250.685L-483.535 349.767C-473.236 371.818 -465.94 380.95 -488.602 386.742L-539.737 404.062L-272.164 549.368C-261.585 554.864 -255.61 564.744 -258.391 573.668L-276.053 624.927L-24.0706 604.696C-16.2881 604.636 -10.9251 607.673 -10.4161 613.954L-8.98018 803.449L61.0091 803.524L28.3227 613.996C27.7007 607.715 32.5212 604.685 40.3164 604.766L295.99 625.54L269.096 574.234C264.703 565.302 268.901 555.433 278.492 549.958L519.954 405.199L465.691 387.766C441.985 381.924 447.638 372.806 453.965 350.773L483.884 251.774L338.001 273.41C323.703 274.929 313.488 268.494 310.754 262.368L287.566 215.714L178.906 307.416C163.602 322.086 129.907 322.05 137.356 288.079L170.558 102.145L105.741 126.415C87.5791 133.749 68.8897 134.945 57.1963 121.773L-46.2141 0.595661L-46.2943 0.568391Z" fill="#D40000" fill-opacity="0.1"/>
</svg>
